<svg viewBox="0 0 1200 800" xmlns="http://www.w3.org/2000/svg" preserveAspectRatio="xMidYMid slice">
  <defs>
    <linearGradient id="sky" x1="0" y1="0" x2="0" y2="1">
      <stop offset="0%" stop-color="#87c7ff" />
      <stop offset="100%" stop-color="#dbefff" />
    </linearGradient>
    <linearGradient id="hill" x1="0" y1="0" x2="1" y2="1">
      <stop offset="0%" stop-color="#7aa76c" />
      <stop offset="100%" stop-color="#4e7b49" />
    </linearGradient>
  </defs>
  <rect width="1200" height="800" fill="url(#sky)" />
  <circle cx="950" cy="180" r="90" fill="#fff2b8" opacity="0.95" />
  <path d="M0 520 C300 440 580 520 900 420 L1200 520 L1200 800 L0 800 Z" fill="url(#hill)" />
  <path d="M80 620 C220 520 360 620 520 540 C640 480 760 620 980 560 L1200 680 L1200 800 L0 800 Z" fill="#628a55" opacity="0.9" />
  <path d="M200 560 C300 470 430 560 560 490 C720 400 820 560 1020 490 L1200 640 L1200 800 L0 800 Z" fill="#4c6f43" opacity="0.85" />
  <path d="M520 520 L620 340 L720 520 Z" fill="#d3e8ff" opacity="0.22" />
</svg>
